<svg xmlns="http://www.w3.org/2000/svg" viewBox="0 0 640 420" preserveAspectRatio="xMidYMid slice">
  <!-- Placeholder thumbnail. Replace with real project photography before launch. -->
  <rect width="640" height="420" fill="#a3906e"/>
  <g stroke="#7c6b4e" stroke-width="4">
    <g fill="#b19e7c"><rect x="-10" y="0" width="160" height="80"/><rect x="158" y="0" width="130" height="80"/><rect x="296" y="0" width="170" height="80"/><rect x="474" y="0" width="180" height="80"/></g>
    <g fill="#98855f"><rect x="-30" y="86" width="140" height="85"/><rect x="118" y="86" width="170" height="85"/><rect x="296" y="86" width="140" height="85"/><rect x="444" y="86" width="210" height="85"/></g>
    <g fill="#ab9876"><rect x="-15" y="177" width="175" height="78"/><rect x="168" y="177" width="130" height="78"/><rect x="306" y="177" width="165" height="78"/><rect x="479" y="177" width="175" height="78"/></g>
    <g fill="#8f7c58"><rect x="-40" y="261" width="150" height="85"/><rect x="118" y="261" width="160" height="85"/><rect x="286" y="261" width="145" height="85"/><rect x="439" y="261" width="215" height="85"/></g>
    <g fill="#a08d68"><rect x="-10" y="352" width="170" height="80"/><rect x="168" y="352" width="140" height="80"/><rect x="316" y="352" width="175" height="80"/><rect x="499" y="352" width="155" height="80"/></g>
  </g>
  <text x="320" y="218" font-family="Georgia, serif" font-size="22" fill="#463c28" opacity="0.85" text-anchor="middle">Photo coming soon</text>
</svg>
